<svg width="87" height="37" viewBox="0 0 87 37" fill="none" xmlns="http://www.w3.org/2000/svg">
<path d="M24.4104 24.7604C24.191 26.3938 23.7934 27.9312 22.8173 29.2569C21.8413 30.5826 20.5036 31.413 18.9362 31.8809C18.6431 31.9706 18.3456 32.0455 18.045 32.1054C17.9825 32.1095 17.9238 32.1368 17.8805 32.182C17.8372 32.2272 17.8124 32.287 17.811 32.3496C17.619 33.474 17.4142 34.5957 17.2223 35.7201C17.1983 35.8572 17.146 35.8914 17.014 35.8914C15.379 35.888 13.7439 35.888 12.1088 35.8914C12.0608 35.8914 12.0128 35.8829 11.9486 35.876C12.1619 34.6583 12.377 33.4517 12.5904 32.216L12.2228 32.1303C11.1944 31.9006 10.2244 31.5398 9.44967 30.7866C8.70926 30.0676 8.37247 29.1583 8.22336 28.16C8.03912 26.9208 8.18737 25.6979 8.41532 24.4751C8.55415 23.7321 8.68441 22.9882 8.81723 22.247C8.82042 22.2033 8.82042 22.1595 8.81723 22.1159H0L0.573304 18.8654C0.967505 16.6253 1.36171 14.3852 1.75591 12.1452C2.20438 9.60342 2.65371 7.06111 3.1039 4.51823C3.295 3.43932 3.48867 2.3587 3.67463 1.27979C3.6952 1.15725 3.73034 1.1084 3.85974 1.1084C5.51623 1.11268 7.17273 1.1084 8.82666 1.1084C8.86602 1.11035 8.90522 1.11464 8.94406 1.12125C7.98513 6.59978 7.02705 12.0689 6.05955 17.574H6.30549C7.3407 17.574 8.37676 17.5671 9.41196 17.5783C9.60564 17.5783 9.67762 17.5243 9.72218 17.3357C10.0401 15.9938 10.5791 14.752 11.4678 13.6834C12.5073 12.4348 13.8484 11.6618 15.3961 11.2256C15.6532 11.1545 15.9103 11.0971 16.1674 11.0431C16.2227 11.04 16.275 11.0167 16.3142 10.9774C16.3534 10.9382 16.3768 10.8859 16.3799 10.8306C16.569 9.71311 16.7652 8.59678 16.9686 7.48159C17.0397 7.08996 16.9755 7.1628 17.3474 7.16195C18.8968 7.16195 20.447 7.16195 21.9964 7.16195H22.2689C22.0409 8.46367 21.8181 9.73882 21.5979 10.9951C22.0615 11.1614 22.5166 11.2891 22.9416 11.4836C24.8329 12.3508 25.839 13.8359 25.9041 15.9149C25.9572 17.6014 25.5073 19.1713 24.6718 20.6359C24.6489 20.6716 24.6187 20.7019 24.583 20.7248C24.5474 20.7478 24.5072 20.7627 24.4653 20.7687C22.8302 20.7764 21.1951 20.7747 19.5592 20.7747C19.5458 20.7745 19.5325 20.7722 19.5198 20.7679C19.7057 20.4088 19.9294 20.0592 20.0734 19.6804C20.3902 18.8412 20.4856 17.9345 20.3502 17.0478C20.2045 16.0383 19.5721 15.4196 18.5548 15.3065C17.884 15.2221 17.203 15.3285 16.5898 15.6133C15.6309 16.0649 15.1133 16.879 14.8674 17.8628C14.666 18.67 14.5417 19.4979 14.396 20.3188C14.1389 21.7756 13.8707 23.2385 13.6453 24.7039C13.5619 25.2458 13.5386 25.7953 13.5759 26.3424C13.6273 27.0742 14.0764 27.5421 14.7757 27.7366C15.6549 27.9783 16.5341 27.9543 17.3697 27.5652C18.3355 27.1162 18.7888 26.267 19.0596 25.29C19.1084 25.1186 19.111 24.8787 19.231 24.787C19.351 24.6953 19.5738 24.7596 19.7512 24.7596H24.413L24.4104 24.7604Z" fill="#080244"/>
<path d="M29.6476 4.48371H33.7436V13.9729H40.2859V17.2349H29.6476V4.48371ZM54.2163 12.101C54.2163 13.8432 53.6665 15.1714 52.5668 16.0858C51.4671 17.0001 49.9041 17.4573 47.8778 17.4573C45.8514 17.4573 44.2822 17.0001 43.1702 16.0858C42.0706 15.1714 41.5207 13.8432 41.5207 12.101V4.48371H45.6167V12.0454C45.6167 12.7621 45.8082 13.3366 46.1912 13.7691C46.5742 14.1892 47.1303 14.3992 47.8592 14.3992C48.5882 14.3992 49.1442 14.183 49.5273 13.7505C49.9227 13.3181 50.1204 12.7497 50.1204 12.0454V4.48371H54.2163V12.101ZM62.3342 14.1768H68.3947V17.2349H56.0327V15.919L61.945 7.54176H56.4775V4.48371H68.2464V5.7996L62.3342 14.1768Z" fill="#080244"/>
<path d="M35.7267 18.7916C37.6171 18.7916 39.1121 19.2673 40.2118 20.2187C41.3115 21.1577 41.8613 22.5045 41.8613 24.259H37.9507C37.9507 23.5177 37.753 22.9308 37.3576 22.4983C36.9746 22.0659 36.4248 21.8496 35.7081 21.8496C34.8803 21.8496 34.2687 22.1091 33.8733 22.628C33.4903 23.147 33.2987 23.8698 33.2987 24.7965V25.9826C33.2987 26.897 33.4903 27.6198 33.8733 28.1511C34.2687 28.67 34.8679 28.9295 35.6711 28.9295C36.4618 28.9295 37.0611 28.7256 37.4688 28.3179C37.8766 27.9101 38.0804 27.3356 38.0804 26.5942H41.8613C41.8613 28.3364 41.3238 29.6708 40.2489 30.5975C39.1863 31.5242 37.6789 31.9875 35.7267 31.9875C33.552 31.9875 31.9025 31.4315 30.7782 30.3195C29.6661 29.2075 29.1101 27.5642 29.1101 25.3896C29.1101 23.2149 29.6661 21.5716 30.7782 20.4596C31.9025 19.3476 33.552 18.7916 35.7267 18.7916ZM52.6167 31.7651L52.0793 29.9674H47.6127L47.0752 31.7651H42.8866L47.5385 19.014H52.3017L56.9536 31.7651H52.6167ZM48.4652 27.1132H51.2267L49.8923 22.5724H49.8182L48.4652 27.1132ZM63.8541 18.7916C65.485 18.7916 66.8256 19.1252 67.8759 19.7924C68.9261 20.4473 69.4636 21.4234 69.4883 22.7207V22.9431H65.6518V22.869C65.6518 22.4983 65.5159 22.1894 65.2441 21.9423C64.9723 21.6952 64.5584 21.5716 64.0023 21.5716C63.4587 21.5716 63.0386 21.6519 62.7421 21.8126C62.4579 21.9732 62.3158 22.1709 62.3158 22.4056C62.3158 22.7392 62.5135 22.9864 62.9089 23.147C63.3042 23.3076 63.9406 23.4744 64.8178 23.6474C65.8434 23.8574 66.6835 24.0798 67.3384 24.3146C68.0056 24.537 68.5863 24.9077 69.0806 25.4266C69.5748 25.9456 69.8281 26.6498 69.8404 27.5395C69.8404 29.0469 69.3277 30.1651 68.3022 30.8941C67.289 31.623 65.9298 31.9875 64.2247 31.9875C62.2355 31.9875 60.6848 31.6539 59.5728 30.9867C58.4731 30.3195 57.9233 29.1395 57.9233 27.4468H61.7968C61.7968 28.0893 61.9636 28.5217 62.2972 28.7442C62.6309 28.9542 63.1498 29.0592 63.8541 29.0592C64.373 29.0592 64.7993 29.0036 65.1329 28.8924C65.4789 28.7812 65.6518 28.5526 65.6518 28.2067C65.6518 27.8978 65.4603 27.6692 65.0773 27.5209C64.7066 27.3603 64.095 27.1935 63.2425 27.0205C62.2046 26.7981 61.3459 26.5695 60.6663 26.3348C59.9867 26.0877 59.3936 25.6861 58.8871 25.1301C58.3805 24.5741 58.1272 23.8204 58.1272 22.869C58.1272 21.4728 58.6647 20.4473 59.7396 19.7924C60.8269 19.1252 62.1984 18.7916 63.8541 18.7916ZM80.4728 31.7651V26.9279H75.9691V31.7651H71.8732V19.014H75.9691V23.6659H80.4728V19.014H84.5688V31.7651H80.4728Z" fill="#080244"/>
</svg>
